<?xml version="1.0" standalone="no"?>
<!DOCTYPE svg PUBLIC "-//W3C//DTD SVG 20010904//EN"
 "http://www.w3.org/TR/2001/REC-SVG-20010904/DTD/svg10.dtd">
<svg version="1.0" xmlns="http://www.w3.org/2000/svg"
 width="640.000000pt" height="640.000000pt" viewBox="0 0 640.000000 640.000000"
 preserveAspectRatio="xMidYMid meet">
<metadata>
Created by potrace 1.14, written by Peter Selinger 2001-2017
</metadata>
<g transform="translate(0.000000,640.000000) scale(0.100000,-0.100000)"
fill="#000000" stroke="none">
<path d="M1897 5444 c-1 -1 -31 -4 -66 -8 -73 -6 -131 -33 -169 -78 -53 -63
-62 -96 -61 -233 0 -44 0 -91 -1 -105 -4 -103 -4 -140 1 -140 3 0 3 -20 -1
-45 -4 -25 -4 -48 0 -50 4 -3 4 -22 0 -44 -4 -22 -4 -45 0 -51 4 -7 4 -27 0
-46 -4 -18 -5 -35 -3 -38 5 -4 5 -102 0 -274 -1 -39 1 -72 4 -72 3 0 2 -23 -1
-51 -4 -29 -4 -68 0 -88 3 -20 3 -50 -1 -68 -3 -17 -3 -37 1 -43 4 -6 4 -28 0
-49 -4 -20 -4 -46 0 -57 4 -10 4 -30 0 -43 -3 -14 -3 -44 0 -68 4 -24 4 -43 1
-43 -3 0 -6 -22 -6 -50 0 -27 2 -50 5 -50 3 0 3 -45 0 -101 -3 -56 -2 -103 3
-106 4 -2 5 -8 3 -12 -3 -4 -5 -34 -5 -67 -1 -32 -1 -72 -2 -89 -1 -33 -1 -64
0 -140 1 -27 0 -78 -1 -113 -2 -34 0 -62 3 -62 3 0 3 -20 -1 -45 -4 -25 -4
-48 0 -50 4 -3 4 -22 0 -44 -4 -22 -4 -45 0 -51 4 -7 4 -26 1 -44 -4 -17 -5
-44 -1 -60 3 -16 3 -63 0 -105 -3 -42 -3 -97 0 -124 3 -26 3 -52 0 -58 -4 -5
-4 -30 0 -54 4 -25 5 -47 2 -49 -6 -7 -8 -116 -2 -116 4 0 4 -111 0 -130 -3
-16 0 -262 4 -269 3 -4 1 -13 -3 -19 -4 -7 -5 -33 -1 -57 4 -25 5 -47 2 -49
-6 -7 -8 -116 -2 -116 6 0 4 -119 -1 -125 -2 -2 -2 -49 1 -104 3 -56 2 -101
-2 -101 -4 0 -2 -15 4 -32 37 -116 98 -175 199 -193 45 -9 195 -8 208 0 6 3
11 3 11 -2 0 -8 143 -8 295 0 111 6 171 41 215 125 18 35 35 129 33 187 -3 73
-3 128 -1 183 2 34 1 62 -2 62 -3 0 -4 30 -2 67 2 67 3 265 1 280 -1 5 -1 10
0 13 5 13 5 120 1 120 -3 0 -4 30 -2 67 2 67 3 265 1 280 -1 5 -1 10 0 13 5
13 5 120 1 120 -3 0 -4 30 -2 67 3 92 4 266 2 278 -1 6 -2 20 -1 32 1 22 4 22
111 22 61 0 115 3 120 6 6 3 10 3 10 -2 0 -8 107 -9 116 -1 2 3 24 2 49 -2 24
-4 50 -3 57 1 6 4 15 6 19 3 7 -4 253 -7 269 -4 19 4 130 4 130 0 0 -6 109 -4
116 2 2 3 24 2 49 -2 24 -4 50 -3 57 1 6 4 16 5 21 2 4 -2 41 -5 81 -4 l74 1
1 -43 c2 -23 2 -51 1 -62 -4 -100 -4 -135 0 -135 3 0 4 -28 2 -62 -1 -35 -2
-79 -1 -98 0 -19 0 -44 -1 -55 -2 -25 -2 -29 -1 -90 0 -27 0 -57 0 -65 0 -8 0
-31 0 -50 1 -19 1 -42 0 -50 -1 -24 0 -143 1 -170 1 -14 1 -32 1 -40 0 -8 0
-37 0 -65 0 -27 0 -57 0 -65 0 -8 0 -33 0 -55 0 -22 0 -44 0 -50 -2 -127 -2
-222 0 -230 1 -5 1 -14 0 -19 -1 -5 -2 -30 -1 -55 1 -64 1 -76 0 -161 -1 -140
24 -199 107 -258 53 -38 107 -47 231 -42 61 3 112 3 112 0 0 -3 23 -5 50 -5
28 0 50 3 50 6 0 3 19 3 43 0 23 -4 61 -4 85 -1 23 4 42 3 42 -1 0 -14 105 23
140 49 72 54 97 107 98 212 3 162 3 211 -2 218 -2 4 -1 14 3 20 4 7 5 33 1 57
-4 25 -5 47 -2 49 6 7 8 116 2 116 -4 0 -4 111 0 130 3 16 0 262 -4 269 -3 4
-1 13 3 19 4 7 5 33 1 57 -4 25 -5 47 -2 49 6 7 8 116 2 116 -4 0 -4 111 0
130 3 16 0 262 -4 269 -3 4 -1 13 3 19 4 7 5 33 1 57 -4 25 -5 47 -2 49 6 7 8
116 2 116 -4 0 -4 111 0 130 3 16 0 262 -4 269 -3 4 -1 13 3 19 4 7 5 33 1 57
-4 25 -5 47 -2 49 6 7 8 116 2 116 -4 0 -4 111 0 130 3 16 0 262 -4 269 -3 4
-1 13 3 19 4 7 5 33 1 57 -4 25 -5 47 -2 49 6 7 8 116 2 116 -4 0 -4 111 0
130 3 16 0 262 -4 269 -3 4 -1 13 3 19 4 7 5 33 1 57 -4 25 -5 47 -2 49 6 7 8
116 2 116 -4 0 -4 113 0 130 4 15 -1 209 -5 234 -14 73 -67 143 -129 170 -49
22 -96 36 -96 28 0 -4 -45 -5 -101 -2 -55 3 -102 3 -104 1 -6 -5 -125 -7 -125
-1 0 5 -73 4 -170 -3 -116 -8 -201 -81 -225 -193 -4 -16 -6 -36 -6 -44 2 -102
1 -132 -4 -139 -3 -5 -1 -12 5 -16 6 -4 8 -11 5 -16 -4 -5 -6 -38 -5 -74 1
-36 1 -73 1 -82 0 -10 0 -36 0 -58 0 -22 0 -49 -1 -60 -2 -25 -2 -25 -1 -105
0 -36 1 -76 1 -90 1 -14 1 -32 1 -40 0 -8 0 -37 0 -65 0 -27 0 -57 0 -65 0 -8
0 -33 0 -55 0 -22 0 -44 0 -50 -2 -127 -2 -222 0 -230 1 -5 1 -14 0 -19 -1 -5
-2 -30 -1 -55 2 -86 2 -207 0 -241 -4 -97 -4 -140 1 -140 3 0 3 -17 0 -37 -6
-37 -8 -38 -54 -43 -26 -3 -47 -3 -47 0 0 5 -275 3 -322 -3 -16 -2 -28 -1 -28
2 0 3 -22 6 -50 6 -27 0 -50 -3 -50 -6 0 -3 -19 -3 -43 1 -24 3 -54 3 -68 0
-13 -4 -33 -4 -43 0 -11 4 -37 4 -57 0 -21 -4 -43 -4 -49 0 -6 4 -26 4 -43 1
-18 -4 -48 -4 -68 -1 -20 4 -59 4 -88 0 -28 -3 -51 -4 -51 -1 0 3 -29 6 -65 6
-36 0 -65 -3 -65 -6 0 -3 -19 -3 -42 0 l-43 6 -2 50 c-2 28 -3 67 -3 88 1 20
1 45 1 55 0 45 0 118 0 127 0 6 0 33 0 60 0 28 0 57 0 65 0 8 0 31 0 50 -1 19
-1 42 0 50 0 8 0 42 0 75 0 33 0 68 0 78 0 9 0 33 0 52 0 19 0 41 0 48 0 6 0
35 0 62 0 28 0 57 0 65 0 8 0 31 0 50 -1 19 -1 42 0 50 1 24 0 143 -1 170 -1
14 -1 32 -1 40 0 8 0 38 0 65 0 28 0 57 0 65 0 8 0 33 0 55 0 22 0 47 0 55 2
56 0 114 -4 121 -3 4 -1 10 4 14 6 3 8 11 6 18 -2 7 -6 36 -9 65 -7 67 -26
109 -66 150 -57 56 -109 72 -235 71 -27 0 -59 1 -70 1 -11 1 -27 1 -35 1 -63
-1 -144 0 -193 2 -32 1 -59 1 -60 1z"/>
<path d="M505 4793 c-50 -15 -105 -50 -137 -88 -30 -36 -45 -98 -47 -200 -1
-55 -3 -133 -4 -173 -1 -39 1 -72 4 -72 3 0 2 -23 -1 -51 -4 -29 -4 -68 0 -88
3 -20 3 -50 -1 -68 -3 -17 -3 -37 1 -43 4 -6 4 -28 0 -49 -4 -20 -4 -46 0 -57
4 -10 4 -30 0 -43 -3 -14 -3 -44 0 -68 4 -24 4 -43 1 -43 -3 0 -5 -52 -3 -115
2 -104 1 -115 -15 -116 -125 -6 -243 -95 -284 -216 -63 -187 56 -389 247 -419
21 -3 41 -7 43 -9 1 -2 5 -232 7 -512 2 -279 6 -527 8 -551 11 -108 86 -186
201 -207 42 -7 193 -8 205 0 5 3 10 3 10 -2 0 -8 143 -8 295 0 147 8 228 84
241 224 9 92 10 313 2 313 -4 0 -5 6 -2 13 7 19 10 307 3 307 -3 0 -2 23 1 51
4 29 4 68 0 88 -3 20 -3 50 1 68 3 17 3 37 -1 43 -4 6 -4 28 0 49 4 20 4 45 0
55 -3 9 -3 44 0 77 3 33 3 62 -1 64 -3 3 -3 25 1 49 4 25 4 50 0 55 -3 6 -3
36 0 66 3 30 3 60 0 66 -4 6 -4 27 0 48 4 20 4 45 0 55 -3 9 -3 44 0 77 3 33
3 62 -1 64 -3 3 -3 25 1 49 4 25 4 50 0 55 -3 6 -3 36 0 66 3 30 3 60 0 66 -4
6 -4 27 0 48 4 20 4 45 0 55 -3 9 -3 44 0 77 3 33 3 62 -1 64 -3 3 -3 25 1 49
4 25 3 51 -1 58 -4 6 -6 15 -4 18 2 3 4 31 4 61 1 30 2 70 2 89 1 19 1 42 0
50 0 8 0 40 0 70 1 30 1 61 0 68 -2 30 -3 39 -1 77 7 210 -41 293 -197 343
-18 6 -33 8 -33 4 0 -4 -49 -7 -110 -7 -60 0 -110 2 -110 5 0 3 -22 5 -50 5
-27 0 -50 -3 -50 -6 0 -3 -19 -3 -42 0 -24 4 -62 4 -85 1 -24 -4 -44 -3 -45 1
-2 3 -25 0 -53 -8z"/>
<path d="M5513 4803 c-5 -1 -57 -4 -118 -6 -114 -4 -136 -11 -193 -59 -44 -37
-72 -95 -78 -165 -9 -92 -10 -313 -2 -313 4 0 5 -6 2 -13 -8 -22 -10 -307 -2
-307 4 0 5 -6 2 -13 -8 -22 -10 -307 -2 -307 4 0 5 -6 2 -13 -8 -22 -10 -307
-2 -307 4 0 5 -6 2 -13 -8 -22 -10 -307 -2 -307 4 0 5 -6 2 -13 -8 -22 -10
-307 -2 -307 4 0 5 -6 2 -13 -8 -22 -10 -307 -2 -307 4 0 5 -6 2 -13 -8 -23
-10 -307 -1 -307 5 0 6 -4 2 -9 -8 -14 -9 -193 -1 -221 30 -101 98 -167 192
-185 41 -7 202 -8 214 0 5 3 10 3 10 -2 0 -4 33 -7 72 -6 40 1 118 3 173 4
142 3 189 22 247 99 27 36 63 140 49 140 -4 0 -5 19 -2 42 4 24 4 62 1 86 -4
23 -4 42 -1 42 3 0 6 23 6 50 0 28 -3 50 -6 50 -3 0 -4 12 -2 27 7 56 8 323 1
323 -4 0 -5 6 -2 13 8 23 10 307 1 307 -5 0 -6 4 -3 8 3 5 6 29 7 54 2 38 6
44 20 41 10 -3 46 5 81 16 77 26 144 84 184 161 26 48 29 65 28 140 0 68 -5
95 -24 134 -51 105 -160 180 -272 185 -13 1 -17 10 -18 34 0 17 0 41 0 52 -1
11 0 43 0 71 0 29 0 56 -1 60 -1 5 -1 11 0 14 5 15 5 310 0 310 -3 0 -2 24 2
53 3 28 5 55 2 59 -2 5 -4 29 -3 55 1 50 1 74 -1 96 0 6 0 30 0 52 1 22 1 47
0 55 0 8 0 38 1 65 1 101 -19 195 -42 195 -5 0 -8 6 -8 13 0 14 -59 63 -93 76
-53 20 -242 31 -267 16 -5 -3 -10 -3 -10 2 0 7 -124 12 -147 6z"/>
</g>
</svg>
